<?xml version="1.0" encoding="UTF-8"?>
<svg width="176px" height="28px" viewBox="0 0 176 28" version="1.1" xmlns="http://www.w3.org/2000/svg" xmlns:xlink="http://www.w3.org/1999/xlink">
    <!-- Generator: Sketch 63.1 (92452) - https://sketch.com -->
    <title>*/img/logo/bch-inverse</title>
    <desc>Created with Sketch.</desc>
    <g id="DS---Pruebas-desktop" stroke="none" stroke-width="1" fill="none" fill-rule="evenodd">
        <g id="Home-Minervizado-01-BCH" transform="translate(-112.000000, -40.000000)" fill="#FFFFFF">
            <g id="header">
                <g id="*/img/logo/bch-inverse" transform="translate(112.000000, 40.000000)">
                    <path d="M7.31276753,-4.78528781e-15 L8.60516605,-4.78528781e-15 C9.53387454,-4.78528781e-15 12.7031734,0.87246022 12.7031734,0.87246022 L13.255203,0.87246022 C13.4630258,0.87246022 13.8072325,0.710893513 13.9371218,0.601028152 C14.0280443,0.633341493 14.0994834,0.652729498 14.2098893,0.736744186 L8.81298893,4.49801714 C8.80649446,4.49801714 7.1698893,5.29292534 7.1698893,6.04259486 L7.1698893,15.5104039 L1.84442804,19.1359608 C1.92236162,18.6318727 2.59778598,18.1730233 2.59778598,17.4556671 L2.59778598,8.12357405 C2.59778598,7.3997552 7.72191882,4.77591187 7.72191882,4.02624235 C7.72191882,3.28949816 4.71498155,2.68847001 4.71498155,2.68847001 C3.7602952,2.649694 3.36413284,2.649694 2.3899631,2.68847001 C1.44177122,2.72078335 0.370184502,3.30888617 0,3.28949816 C1.16250923,2.53336597 4.28634686,-4.78528781e-15 7.31276753,-4.78528781e-15 L7.31276753,-4.78528781e-15 Z M18.2364576,0.200342717 C19.0612546,0.200342717 19.5548339,1.06634027 20.9706273,2.88881273 C21.3213284,3.33473684 22.9514391,5.299388 22.9514391,6.24293758 L22.9514391,6.98614443 C22.9514391,8.89909425 17.8273063,10.8185067 17.8273063,11.6134149 C17.8273063,12.1627417 20.5225092,11.904235 21.7239852,12.6926805 C22.8735055,13.4423501 23.3605904,15.0321665 23.3605904,15.9110894 L23.3605904,18.1988739 C23.3605904,19.5624969 21.4577122,20.0795104 19.1261993,21.8244308 C18.1000738,22.5870257 14.6060517,24.9135863 14.3462731,24.9135863 C14.3462731,24.9135863 10.3326937,22.7615177 8.40383764,22.7615177 L5.80605166,22.7615177 C4.71498155,22.7615177 2.05225092,23.7050673 1.84442804,23.7050673 C1.84442804,23.7050673 5.87749077,19.8080783 9.97549815,19.8080783 L12.7031734,19.8080783 C13.2681919,19.8080783 15.2035424,20.5900612 15.7101107,20.7516279 L15.7101107,3.6901836 C15.7101107,3.52861689 15.4957934,3.22487148 15.1645756,3.22487148 C14.4047232,3.22487148 13.8656827,4.58203182 13.8656827,4.63373317 L13.8656827,14.7736597 C13.8656827,15.2260465 12.0926937,16.5767442 11.1315129,17.1196083 C9.70922509,17.9339045 8.78701107,18.7158874 7.92324723,19.1359608 L7.92324723,18.9356181 C7.92324723,18.9356181 8.67660517,18.1277846 8.67660517,17.6624725 L8.67660517,6.65008568 C8.67660517,6.51436965 9.87808118,5.0344186 13.1837638,3.15378213 C15.1061255,2.06805386 17.0609594,0.200342717 18.2364576,0.200342717 L18.2364576,0.200342717 Z M16.6712915,4.83407589 C16.6712915,4.83407589 18.8534317,7.18002448 18.8534317,8.59534884 C18.8534317,9.66815177 18.0156458,10.0882252 16.6712915,10.8766707 L16.6712915,4.83407589 Z M16.6712915,12.7573072 C16.8791144,12.8090086 18.1000738,13.5328274 18.1000738,14.0369155 L18.1000738,21.7533415 C17.7623616,21.9084455 18.0351292,21.7533415 17.8273063,21.7533415 C17.3986716,21.7533415 16.6712915,21.4237454 16.6712915,21.0165973 L16.6712915,12.7573072 Z M68.8543173,9.86849449 L73.7056827,12.2209058 L73.7056827,22.561175 L69.1270849,24.7778703 L64.2107749,22.6968911 L64.2107749,11.884847 L68.8543173,9.86849449 Z M46.4484133,9.56474908 L49.3839114,12.4470991 L49.3839114,21.31388 L50.7477491,22.6581151 L48.4941697,24.8037209 L46.1042066,22.5870257 L46.1042066,14.3277356 C46.0652399,14.3018849 44.6104797,12.8800979 44.3312177,12.7831579 L42.6881181,14.2631089 L42.6881181,21.3785067 L43.9220664,22.5870257 L41.597048,24.8037209 L39.4798524,22.7938311 L39.4798524,13.8624235 C39.4798524,13.8624235 38.4732103,13.035202 38.0445756,12.5181885 L40.9151292,9.62937576 L43.7142435,12.2467564 L46.4484133,9.56474908 Z M57.71631,9.93958384 L63.0482657,12.1562791 C62.801476,12.4535618 61.1778598,13.6233048 60.5868635,13.7654835 C60.5868635,13.7654835 56.235572,12.0916524 56.1446494,12.0851897 L56.1446494,20.8162546 L59.8075277,22.6064137 C59.8075277,22.6064137 61.9182288,21.8890575 62.4312915,21.8890575 C62.4897417,21.8890575 62.5806642,21.9084455 62.704059,21.8890575 L62.704059,22.0894002 L58.541107,24.7778703 L57.9890775,24.7778703 L52.7285609,22.425459 L52.7285609,12.2855324 L57.71631,9.93958384 Z M30.8032472,9.69400245 C34.1219188,11.3290575 35.5831734,11.5294002 35.5831734,12.2467564 L35.5831734,20.8421053 L37.700369,22.9230845 L35.7195572,24.8037209 C34.2712915,23.6404406 33.7387454,23.1298898 33.7387454,23.1298898 L30.101845,24.920049 L25.1335793,22.6839657 L25.1335793,17.0162056 L29.9849446,14.6637944 L32.6476753,15.74306 L32.6476753,13.3906487 L28.3938007,11.9365483 L26.2571218,12.1885924 L26.1597048,11.846071 L30.8032472,9.69400245 Z M67.3865683,11.884847 L70.5623616,13.364798 L70.5623616,22.561175 L67.3476015,21.1523133 L67.3865683,11.884847 Z M28.1405166,16.6155202 L32.6476753,18.8322154 L32.6476753,22.9941738 L28.1405166,20.9325826 L28.1405166,16.6155202 Z M90.3769742,3.63201958 C90.584797,3.63201958 91.4810332,3.974541 92.9747601,4.70482252 C93.7800738,5.09904529 95.2283395,5.4027907 95.2283395,6.11368421 L95.2283395,22.7679804 L90.7211808,24.8489596 L85.7334317,22.503011 L85.7334317,11.9559364 L90.5133579,9.87495716 C90.682214,9.89434517 92.2214022,10.482448 92.2214022,10.482448 L92.2214022,7.12186047 L88.2338007,5.44802938 C87.5843542,5.48680539 86.8180074,6.10075887 86.0386716,6.23647491 L86.2075277,5.57728274 C86.2075277,5.57728274 89.8054613,3.63201958 90.3769742,3.63201958 L90.3769742,3.63201958 Z M103.015203,9.81033048 L107.457417,14.6444064 L100.962952,19.3427662 L100.962952,20.6223745 C100.962952,20.8873439 104.788192,22.6064137 104.788192,22.6064137 C104.788192,22.6064137 106.684576,21.3332681 107.522362,21.8308935 C107.4769,21.8890575 102.943764,24.7843329 102.943764,24.7843329 L98.098893,22.7033537 L98.098893,12.0916524 L103.015203,9.81033048 Z M88.8767528,11.8913097 L92.1499631,13.364798 L92.1499631,22.5676377 L92.0850185,22.5676377 L88.8767528,21.158776 L88.8767528,11.8913097 Z M101.034391,12.0916524 L104.288118,15.4457772 L101.034391,17.7981885 L101.034391,12.0916524 Z M162.653875,21.4431334 L163.881328,22.580563 L161.419926,24.8618849 L159.101402,22.580563 L159.101402,7.1347858 L162.653875,3.71603427 L162.653875,21.4431334 Z M143.729004,3.2830355 L143.729004,13.015814 L147.281476,9.59059976 L149.944207,12.2144431 L149.944207,24.5646022 L146.599557,27.7894737 L146.528118,27.7894737 L146.528118,13.8882742 L145.229225,12.6797552 L143.729004,13.9593635 L143.729004,21.275104 L145.027897,22.483623 L145.027897,22.5547124 L142.637934,24.900661 L140.312915,22.619339 L140.312915,6.63716034 L143.729004,3.34766218 L143.729004,3.2830355 Z M153.90583,3.2830355 L153.977269,3.2830355 L156.295793,5.56435741 L156.295793,5.62898409 L153.90583,7.98139535 L151.515867,5.62898409 L153.90583,3.2830355 Z M170.713506,9.95897185 C170.843395,9.95897185 175.15572,14.5991677 175.220664,14.7930477 L168.732694,19.2910649 L168.732694,21.1070747 L172.408561,22.7421297 C172.408561,22.7421297 174.337417,22.4900857 175.019336,21.9084455 L176,22.1475643 C175.915572,22.270355 171.486347,24.9329743 170.713506,24.9329743 C170.544649,24.9329743 167.232472,23.6856793 165.86214,22.7809058 L165.86214,12.5117258 C165.86214,12.0528764 170.700517,9.95897185 170.713506,9.95897185 L170.713506,9.95897185 Z M153.977269,9.59059976 L154.042214,9.59059976 L156.15941,11.6715789 L156.15941,21.2104774 L157.458303,22.4189963 L155.003395,24.7649449 L152.678376,22.483623 L152.678376,12.9511873 L151.587306,11.943011 L153.977269,9.59059976 Z M168.797638,12.2402938 L171.908487,15.3876132 L168.817122,17.3458017 L168.797638,12.2402938 Z M130.512768,1.55750306 L130.785535,1.55750306 C130.564723,2.1003672 126.882362,3.84528764 125.453579,5.45449204 C123.264945,7.92323133 121.797196,9.29977968 122.043985,13.15153 C122.186863,15.3876132 123.979336,18.7029621 126.070554,19.892093 C126.713506,20.2540024 128.746273,21.3526561 130.649151,21.4366707 C132.883247,21.5336108 132.590996,21.197552 132.61048,21.178164 C132.616974,21.1717013 132.636458,21.1846267 132.714391,21.2234027 L132.714391,4.97625459 C132.714391,4.77591187 132.214317,3.7095716 131.740221,3.7095716 C131.603838,3.7095716 131.402509,3.955153 131.402509,4.11025704 L131.402509,15.3229865 C131.402509,15.74306 131.006347,16.3440881 129.077491,17.6043084 C127.103173,18.8968421 126.492694,19.3298409 126.278376,19.2846022 C126.323838,19.1618115 126.622583,18.7223501 126.752472,18.6124847 L126.752472,6.92798042 C126.752472,5.77762546 128.467011,5.09904529 129.967232,3.974541 C132.428635,2.1197552 133.766494,1.69321909 133.792472,1.69321909 L134.402952,1.69321909 C136.046052,1.69321909 137.072177,3.63848225 137.273506,3.83882497 C137.286494,3.85175031 137.747601,4.00685435 137.89048,4.17488372 L138.845166,4.17488372 C139.117934,4.17488372 139.799852,3.77419829 140.209004,3.83882497 C139.104945,4.78883721 135.57845,6.99906977 135.500517,6.99906977 L134.954982,6.99906977 C134.701697,6.99906977 134.31203,6.61777234 133.857417,6.39157895 L133.857417,21.0295226 C134.052251,21.0553733 134.026273,21.0295226 134.130185,21.0295226 C134.799114,21.0295226 137.286494,19.2652142 137.409889,19.0842595 L137.617712,19.0842595 L137.617712,19.5560343 L136.591587,21.4366707 C134.461402,23.8343207 132.064945,25.016989 128.661845,25.0428397 C122.693432,25.0816157 118.465535,20.8356426 118.010923,14.2501836 C117.55631,7.69703794 122.251808,2.30717258 127.778598,1.95818849 C128.583911,1.91294982 129.57107,1.97111383 129.694465,1.95818849 C129.694465,1.95818849 130.447823,1.60274174 130.512768,1.55750306 L130.512768,1.55750306 Z" id="Banco-de-Chile"></path>
                </g>
            </g>
        </g>
    </g>
</svg>